<?xml version="1.0" encoding="UTF-8" standalone="no"?>
<!-- Generator: Adobe Illustrator 15.0.0, SVG Export Plug-In . SVG Version: 6.00 Build 0)  -->
<svg xmlns:dc="http://purl.org/dc/elements/1.1/"
xmlns:cc="http://creativecommons.org/ns#"
xmlns:rdf="http://www.w3.org/1999/02/22-rdf-syntax-ns#"
xmlns:svg="http://www.w3.org/2000/svg"
xmlns="http://www.w3.org/2000/svg"
xmlns:sodipodi="http://sodipodi.sourceforge.net/DTD/sodipodi-0.dtd"
xmlns:inkscape="http://www.inkscape.org/namespaces/inkscape"
version="1.1"
id="svg2"
sodipodi:docname="KB_Russian.svg"
inkscape:version="0.91 r13725"
sodipodi:version="0.32"
inkscape:output_extension="org.inkscape.output.svg.inkscape"
x="0px"
y="0px"
width="900px"
height="300px"
viewBox="0 0 900 300"
enable-background="new 0 0 900 300"
xml:space="preserve">
<metadata id="metadata4339">
<rdf:RDF>
<cc:Work rdf:about="">
<dc:format>image/svg+xml</dc:format>
<dc:type rdf:resource="http://purl.org/dc/dcmitype/StillImage"/>
<dc:title/>
</cc:Work>
</rdf:RDF>
</metadata>
<defs id="defs4137">
<inkscape:perspective id="perspective221" inkscape:persp3d-origin="450 : 100 : 1" inkscape:vp_z="900 : 150 : 1" inkscape:vp_y="0 : 1000 : 0" inkscape:vp_x="0 : 150 : 1" sodipodi:type="inkscape:persp3d"/>
</defs>
<sodipodi:namedview id="base" inkscape:grid-bbox="true" inkscape:guide-bbox="true" inkscape:window-y="-8" inkscape:window-x="-8" inkscape:window-height="1017" inkscape:window-width="1920" inkscape:grid-points="true" inkscape:current-layer="layer1" inkscape:document-units="px" inkscape:pageshadow="2" inkscape:pageopacity="0.0" showguides="true" showborder="false" gridtolerance="15px" showgrid="true" inkscape:cy="44.645929" inkscape:cx="342.46659" inkscape:zoom="1" borderopacity="1.0" bordercolor="#666666" pagecolor="#ffffff" inkscape:window-maximized="1">
<inkscape:grid type="xygrid" color="#0000ff" opacity="0.12156863" originy="0px" originx="0px" id="GridFromPre046Settings" empspacing="1" empopacity="0.25098039" empcolor="#0000ff" spacingy="1" spacingx="1" visible="false"/>
</sodipodi:namedview>
<g id="layer1" inkscape:groupmode="layer" inkscape:label="Layer 1">
<path id="rect2186" fill="#FFFFFF" stroke="#000000" d="M0,0h60v60H0V0z"/>
<path id="rect2218" fill="#FFFFFF" stroke="#000000" d="M60,0h60v60H60V0z"/>
<path id="rect2222" fill="#FFFFFF" stroke="#000000" d="M120,0h60v60h-60V0z"/>
<path id="rect2228" fill="#FFFFFF" stroke="#000000" d="M180,0h60v60h-60V0z"/>
<path id="rect2230" fill="#FFFFFF" stroke="#000000" d="M240,0h60v60h-60V0z"/>
<path id="rect2232" fill="#FFFFFF" stroke="#000000" d="M300,0h60v60h-60V0z"/>
<path id="rect2234" fill="#FFFFFF" stroke="#000000" d="M360,0h60v60h-60V0z"/>
<path id="rect2236" fill="#FFFFFF" stroke="#000000" d="M420,0h60v60h-60V0z"/>
<path id="rect2238" fill="#FFFFFF" stroke="#000000" d="M480,0h60v60h-60V0z"/>
<path id="rect2240" fill="#FFFFFF" stroke="#000000" d="M540,0h60v60h-60V0z"/>
<path id="rect2242" fill="#FFFFFF" stroke="#000000" d="M600,0h60v60h-60V0z"/>
<path id="rect2244" fill="#FFFFFF" stroke="#000000" d="M660,0h60v60h-60V0z"/>
<path id="rect2246" fill="#FFFFFF" stroke="#000000" d="M720,0h60v60h-60V0z"/>
<path id="rect2248" fill="#DFDFDF" stroke="#000000" d="M840,0h60v60h-60v-0.5V0z"/>
<path id="rect2250" fill="#DFDFDF" stroke="#000000" d="M0,60h90v60H0V60z"/>
<path id="rect2252" fill="#FFFFFF" stroke="#000000" d="M90,60h60v60H90V60z"/>
<path id="rect2254" fill="#FFFFFF" stroke="#000000" d="M150,60h60v60h-60V60z"/>
<path id="rect2256" fill="#FFFFFF" stroke="#000000" d="M210,60h60v60h-60V60z"/>
<path id="rect2258" fill="#FFFFFF" stroke="#000000" d="M270,60h60v60h-60V60z"/>
<path id="rect2262" fill="#FFFFFF" stroke="#000000" d="M330,60h60v60h-60V60z"/>
<path id="rect2264" fill="#FFFFFF" stroke="#000000" d="M390,60h60v60h-60V60z"/>
<path id="rect2266" fill="#FFFFFF" stroke="#000000" d="M450,60h60v60h-60V60z"/>
<path id="rect2270" fill="#FFFFFF" stroke="#000000" d="M510,60h60v60h-60V60z"/>
<path id="rect2272" fill="#FFFFFF" stroke="#000000" d="M570,60h60v60h-60V60z"/>
<path id="rect2274" fill="#FFFFFF" stroke="#000000" d="M630,60h60v60h-60V60z"/>
<path id="rect2278" fill="#FFFFFF" stroke="#000000" d="M690,60h60v60h-60V60z"/>
<path id="rect2280" fill="#FFFFFF" stroke="#000000" d="M750,60h60v60h-60V60z"/>
<path id="rect2286" fill="#DFDFDF" stroke="#000000" d="M0,120h105v60H0V120z"/>
<path id="rect2292" fill="#FFFFFF" stroke="#000000" d="M105,120h60v60h-60V120z"/>
<path id="rect2296" fill="#FFFFFF" stroke="#000000" d="M165,120h60v60h-60V120z"/>
<path id="rect2298" fill="#FFFFFF" stroke="#000000" d="M225,120h60v60h-60V120z"/>
<path id="rect2300" fill="#FFFFFF" stroke="#000000" d="M285,120h60v60h-60V120z"/>
<path id="rect2302" fill="#FFFFFF" stroke="#000000" d="M345,120h60v60h-60V120z"/>
<path id="rect2306" fill="#FFFFFF" stroke="#000000" d="M405,120h60v60h-60V120z"/>
<path id="rect2308" fill="#FFFFFF" stroke="#000000" d="M465,120h60v60h-60V120z"/>
<path id="rect2312" fill="#FFFFFF" stroke="#000000" d="M525,120h60v60h-60V120z"/>
<path id="rect2314" fill="#FFFFFF" stroke="#000000" d="M585,120h60v60h-60V120z"/>
<path id="rect2316" fill="#FFFFFF" stroke="#000000" d="M645,120h60v60h-60V120z"/>
<path id="rect2318" fill="#FFFFFF" stroke="#000000" d="M705,120h60v60h-60V120z"/>
<path id="rect2320" fill="#DFDFDF" stroke="#000000" d="M810,120V60h90v120H765l0.25-60H810z"/>
<path id="rect2322" fill="#DFDFDF" stroke="#000000" d="M0,180h135v60H0V180z"/>
<path id="rect2324" fill="#FFFFFF" stroke="#000000" d="M135,180h60v60h-60V180z"/>
<path id="rect2326" fill="#FFFFFF" stroke="#000000" d="M195,180h60v60h-60V180z"/>
<path id="rect2330" fill="#FFFFFF" stroke="#000000" d="M255,180h60v60h-60V180z"/>
<path id="rect2334" fill="#FFFFFF" stroke="#000000" d="M315,180h60v60h-60V180z"/>
<path id="rect2336" fill="#FFFFFF" stroke="#000000" d="M375,180h60v60h-60V180z"/>
<path id="rect2338" fill="#FFFFFF" stroke="#000000" d="M435,180h60v60h-60V180z"/>
<path id="rect2340" fill="#FFFFFF" stroke="#000000" d="M495,180h60v60h-60V180z"/>
<path id="rect2342" fill="#FFFFFF" stroke="#000000" d="M555,180h60v60h-60V180z"/>
<path id="rect2344" fill="#FFFFFF" stroke="#000000" d="M615,180h60v60h-60V180z"/>
<path id="rect2346" fill="#FFFFFF" stroke="#000000" d="M675,180h60v60h-60V180z"/>
<path id="rect2348" fill="#DFDFDF" stroke="#000000" d="M735,180h165v60H735V180z"/>
<path id="rect2350" fill="#DFDFDF" stroke="#000000" d="M0,240h90v60H0V240z"/>
<path id="rect2352" fill="#DFDFDF" stroke="#000000" d="M810,240h90v60h-90V240z"/>
<path id="rect2354" fill="#DFDFDF" stroke="#000000" d="M150,240h90v60h-90V240z"/>
<path id="rect2360" fill="#DFDFDF" stroke="#000000" d="M600,240h90v60h-90V240z"/>
<path id="rect2362" fill="#FFFFFF" stroke="#000000" d="M240,240h360v60H240V240z"/>
<path id="rect2364" fill="#EFEFEF" stroke="#000000" d="M90,240h60v60H90V240z"/>
<path id="rect2366" fill="#EFEFEF" stroke="#000000" d="M690,240h60v60h-60V240z"/>
<path id="rect2368" fill="#EFEFEF" stroke="#000000" d="M750,240h60v60h-60V240z"/>
<path id="flowRoot4146" fill="#EFEFEF" stroke="#000000" d="M0,0"/>
<path id="text5091" d="M75.352,18.826l-0.914-7.77V6.369h3.609v4.688l-0.914,7.77H75.352 M74.484,23.631v-3.457h3.48v3.457H74.484    M75.352,53.631V42.158h-4.008v-2.355h0.258c1.461,0,2.523-0.227,3.188-0.68c0.672-0.453,1.066-1.211,1.184-2.273h2.684v16.781   H75.352"/>
<path id="text5127" d="M135.573,6.779h2.25v6.551h-2.25V6.779 M131.753,6.779h2.25v6.551h-2.25V6.779 M128.565,53.631   c0.016-1.5,0.336-2.77,0.961-3.809c0.625-1.047,1.734-2.105,3.328-3.176c0.242-0.164,0.594-0.391,1.055-0.68   c2.109-1.352,3.164-2.652,3.164-3.902c0-0.742-0.223-1.328-0.668-1.758s-1.055-0.645-1.828-0.645c-0.844,0-1.496,0.266-1.957,0.797   c-0.453,0.523-0.68,1.273-0.68,2.25v0.141h-3.094c0-1.922,0.516-3.402,1.547-4.441s2.5-1.559,4.406-1.559   c1.727,0,3.105,0.473,4.137,1.418c1.031,0.938,1.547,2.188,1.547,3.75c0,1.117-0.27,2.086-0.809,2.906s-1.582,1.754-3.129,2.801   c-0.328,0.227-0.781,0.523-1.359,0.891c-1.469,0.945-2.297,1.664-2.484,2.156h7.617v2.859H128.565"/>
<path id="text5139" d="M190.078,48.521h3.223c0.008,0.938,0.234,1.645,0.68,2.121c0.445,0.469,1.105,0.703,1.98,0.703   c0.844,0,1.492-0.219,1.945-0.656c0.461-0.445,0.691-1.082,0.691-1.91s-0.27-1.453-0.809-1.875   c-0.531-0.43-1.324-0.645-2.379-0.645c-0.055,0-0.141,0.004-0.258,0.012c-0.109,0.008-0.191,0.012-0.246,0.012v-2.32h0.363   c0.969,0,1.684-0.188,2.145-0.563c0.469-0.383,0.703-0.965,0.703-1.746c0-0.648-0.199-1.16-0.598-1.535   c-0.391-0.383-0.926-0.574-1.605-0.574c-0.742,0-1.316,0.219-1.723,0.656s-0.609,1.059-0.609,1.863v0.141h-3.164   c0.039-1.719,0.543-3.035,1.512-3.949c0.977-0.922,2.352-1.383,4.125-1.383c1.68,0,3.012,0.41,3.996,1.23s1.477,1.926,1.477,3.316   c0,0.734-0.168,1.379-0.504,1.934s-0.84,1.012-1.512,1.371c0.859,0.375,1.508,0.895,1.945,1.559   c0.445,0.656,0.668,1.441,0.668,2.355c0,1.68-0.551,3.012-1.652,3.996s-2.605,1.477-4.512,1.477c-1.883,0-3.336-0.477-4.359-1.43   c-1.016-0.961-1.523-2.324-1.523-4.09V48.521"/>
<path id="path2363" d="M254.648,47.42v-7.184l-4.559,7.184H254.648 M254.578,53.631V50.01H247.5v-2.953l6.188-9.727h4.16v10.008   h1.945v2.672h-1.945v3.621H254.578"/>
<path id="text5151" d="M320.426,19.74c0,0.523,0.176,0.965,0.527,1.324c0.352,0.352,0.785,0.527,1.301,0.527   c0.5,0,0.93-0.18,1.289-0.539c0.359-0.367,0.539-0.805,0.539-1.313c0-0.5-0.18-0.926-0.539-1.277   c-0.352-0.359-0.781-0.539-1.289-0.539c-0.516,0-0.949,0.176-1.301,0.527C320.602,18.795,320.426,19.225,320.426,19.74    M317.883,19.74c0-1.219,0.422-2.246,1.266-3.082s1.879-1.254,3.105-1.254c1.203,0,2.227,0.426,3.07,1.277   c0.852,0.844,1.277,1.863,1.277,3.059c0,1.203-0.426,2.234-1.277,3.094c-0.852,0.852-1.875,1.277-3.07,1.277   c-1.227,0-2.262-0.422-3.105-1.266S317.883,20.967,317.883,19.74 M311.074,24.111L321.082,6.85h1.887l-10.008,17.262H311.074    M310.043,11.221c0,0.516,0.172,0.949,0.516,1.301c0.352,0.352,0.785,0.527,1.301,0.527c0.508,0,0.938-0.176,1.289-0.527   c0.359-0.359,0.539-0.793,0.539-1.301c0-0.5-0.18-0.926-0.539-1.277c-0.352-0.359-0.781-0.539-1.289-0.539   c-0.516,0-0.949,0.176-1.301,0.527C310.215,10.275,310.043,10.705,310.043,11.221 M307.5,11.221c0-1.219,0.422-2.25,1.266-3.094   c0.844-0.852,1.875-1.277,3.094-1.277c1.203,0,2.227,0.43,3.07,1.289c0.852,0.852,1.277,1.879,1.277,3.082s-0.426,2.23-1.277,3.082   c-0.844,0.844-1.867,1.266-3.07,1.266c-1.227,0-2.262-0.418-3.105-1.254C307.918,13.479,307.5,12.447,307.5,11.221 M310.852,49.119   h3.281c0.055,0.734,0.301,1.305,0.738,1.711c0.438,0.398,1.023,0.598,1.758,0.598c0.906,0,1.598-0.266,2.074-0.797   c0.484-0.531,0.727-1.293,0.727-2.285c0-0.93-0.246-1.66-0.738-2.191c-0.492-0.539-1.172-0.809-2.039-0.809   c-0.484,0-0.91,0.098-1.277,0.293s-0.68,0.484-0.938,0.867l-3.023-0.176l1.09-9h9.645v2.836h-7.277l-0.434,3.363   c0.367-0.289,0.789-0.504,1.266-0.645c0.477-0.148,1.008-0.223,1.594-0.223c1.672,0,3.02,0.508,4.043,1.523   c1.031,1.016,1.547,2.348,1.547,3.996c0,1.805-0.566,3.246-1.699,4.324c-1.133,1.07-2.652,1.605-4.559,1.605   c-1.734,0-3.117-0.441-4.148-1.324C311.457,51.896,310.914,50.674,310.852,49.119"/>
<path id="text5163" d="M434.66,53.631h-3.504c0.125-2.289,0.676-4.559,1.652-6.809c0.984-2.25,2.387-4.461,4.207-6.633h-8.25V37.33   h11.895v2.52c-1.844,2.031-3.262,4.18-4.254,6.445C435.422,48.561,434.84,51.006,434.66,53.631"/>
<path id="text5169" d="M493.5,13.213l-2.063,2.906l-1.992-1.395l2.25-2.824l-3.281-0.914l0.762-2.379l3.152,1.125V6.369h2.32v3.363   l3.152-1.102l0.785,2.379l-3.281,0.891l2.227,2.801l-2.039,1.465L493.5,13.213 M490.875,48.756c0,0.82,0.227,1.453,0.68,1.898   c0.461,0.445,1.117,0.668,1.969,0.668c0.813,0,1.449-0.227,1.91-0.68c0.469-0.453,0.703-1.082,0.703-1.887   c0-0.773-0.238-1.395-0.715-1.863s-1.109-0.703-1.898-0.703s-1.43,0.238-1.922,0.715C491.117,47.381,490.875,47.998,490.875,48.756    M491.145,41.561c0,0.648,0.203,1.148,0.609,1.5c0.406,0.344,0.988,0.516,1.746,0.516s1.34-0.176,1.746-0.527   c0.414-0.352,0.621-0.848,0.621-1.488c0-0.625-0.211-1.117-0.633-1.477s-1-0.539-1.734-0.539c-0.719,0-1.293,0.184-1.723,0.551   C491.355,40.463,491.145,40.951,491.145,41.561 M489.938,44.818c-0.703-0.391-1.211-0.848-1.523-1.371s-0.469-1.191-0.469-2.004   c0-1.438,0.492-2.566,1.477-3.387s2.344-1.23,4.078-1.23c1.75,0,3.117,0.41,4.102,1.23c0.992,0.813,1.488,1.941,1.488,3.387   c0,0.773-0.168,1.445-0.504,2.016c-0.336,0.563-0.84,1.016-1.512,1.359c0.82,0.383,1.438,0.914,1.852,1.594   c0.414,0.672,0.621,1.492,0.621,2.461c0,1.633-0.539,2.914-1.617,3.844c-1.07,0.93-2.547,1.395-4.43,1.395   c-1.906,0-3.387-0.461-4.441-1.383s-1.582-2.207-1.582-3.855c0-0.961,0.195-1.766,0.586-2.414   C488.461,45.803,489.086,45.256,489.938,44.818"/>
<path id="text5175" d="M557.859,6.369c-1.078,1.766-1.879,3.563-2.402,5.391s-0.785,3.746-0.785,5.754c0,2,0.262,3.914,0.785,5.742   s1.324,3.625,2.402,5.391h-2.473c-1.367-1.867-2.406-3.742-3.117-5.625c-0.703-1.891-1.055-3.727-1.055-5.508   s0.352-3.617,1.055-5.508c0.711-1.891,1.75-3.77,3.117-5.637H557.859 M556.066,42.686c0-0.961-0.242-1.719-0.727-2.273   c-0.477-0.563-1.129-0.844-1.957-0.844c-0.781,0-1.391,0.27-1.828,0.809c-0.43,0.539-0.645,1.293-0.645,2.262   c0,0.906,0.227,1.613,0.68,2.121s1.09,0.762,1.91,0.762c0.805,0,1.434-0.25,1.887-0.75S556.066,43.576,556.066,42.686    M556.125,47.057c-0.391,0.391-0.852,0.684-1.383,0.879s-1.129,0.293-1.793,0.293c-1.648,0-2.969-0.496-3.961-1.488   s-1.488-2.32-1.488-3.984c0-1.766,0.539-3.191,1.617-4.277s2.5-1.629,4.266-1.629c2.047,0,3.602,0.707,4.664,2.121   c1.07,1.406,1.605,3.461,1.605,6.164c0,2.906-0.57,5.133-1.711,6.68s-2.781,2.32-4.922,2.32c-1.477,0-2.668-0.383-3.574-1.148   c-0.906-0.773-1.402-1.824-1.488-3.152l3.387,0.012c0.078,0.539,0.289,0.941,0.633,1.207s0.828,0.398,1.453,0.398   c0.844,0,1.488-0.367,1.934-1.102S556.063,48.518,556.125,47.057"/>
<path id="text5181" d="M609.375,6.369h2.496c1.359,1.859,2.391,3.734,3.094,5.625c0.703,1.883,1.055,3.723,1.055,5.52   c0,1.789-0.352,3.629-1.055,5.52s-1.734,3.762-3.094,5.613h-2.496c1.086-1.773,1.891-3.574,2.414-5.402   c0.531-1.836,0.797-3.746,0.797-5.73c0-1.992-0.266-3.902-0.797-5.73C611.266,9.955,610.461,8.15,609.375,6.369 M610.98,45.475   c0,2.039,0.203,3.52,0.609,4.441c0.414,0.922,1.07,1.383,1.969,1.383s1.555-0.465,1.969-1.395s0.621-2.406,0.621-4.43   c0-2.031-0.207-3.508-0.621-4.43s-1.07-1.383-1.969-1.383s-1.555,0.461-1.969,1.383C611.184,41.959,610.98,43.436,610.98,45.475    M607.5,45.475c0-2.883,0.5-5.039,1.5-6.469c1.008-1.438,2.527-2.156,4.559-2.156c2.023,0,3.539,0.723,4.547,2.168   c1.016,1.438,1.523,3.598,1.523,6.48s-0.504,5.035-1.512,6.457c-1,1.422-2.52,2.133-4.559,2.133c-2.031,0-3.551-0.715-4.559-2.145   C608,50.514,607.5,48.357,607.5,45.475"/>
<path id="text5187" d="M667.5,26.9h12v2.391h-12V26.9 M670.207,48.85v-3.211h6.586v3.211H670.207"/>
<path id="text5201" d="M733.336,9.322h2.367v5.977h5.836v2.332h-5.836v6h-2.367v-6H727.5v-2.332h5.836V9.322 M727.5,47.818h14.039   v2.332H727.5V47.818 M727.5,42.779h14.039v2.332H727.5V42.779"/>
<path id="text5427" d="M11.07,95.602v-9.453H7.656v-2.055h9.172v2.055h-3.391v9.453H11.07 M22.859,94.547   c-0.287,0.443-0.662,0.781-1.125,1.016c-0.463,0.229-1.002,0.344-1.617,0.344c-0.823,0-1.458-0.234-1.906-0.703   c-0.443-0.469-0.664-1.135-0.664-2c0-0.802,0.221-1.414,0.664-1.836c0.448-0.422,1.185-0.711,2.211-0.867   c0.234-0.037,0.542-0.078,0.922-0.125c0.963-0.125,1.445-0.404,1.445-0.836c0-0.344-0.107-0.588-0.32-0.734   c-0.213-0.151-0.57-0.227-1.07-0.227c-0.458,0-0.81,0.091-1.055,0.273s-0.367,0.443-0.367,0.781v0.125h-2.125v-0.156   c0-0.87,0.307-1.552,0.922-2.047c0.615-0.5,1.463-0.75,2.547-0.75c1.188,0,2.096,0.206,2.727,0.617   C24.682,87.833,25,88.427,25,89.203v4.828c0,0.354,0.037,0.62,0.109,0.797c0.073,0.172,0.195,0.302,0.367,0.391v0.383h-2.367   c-0.078-0.146-0.138-0.307-0.18-0.484S22.865,94.75,22.859,94.547 M22.82,91.422c-0.37,0.172-0.797,0.31-1.281,0.414   C21.06,91.94,20.813,91.995,20.797,92c-0.401,0.115-0.682,0.258-0.844,0.43c-0.156,0.172-0.234,0.409-0.234,0.711   c0,0.313,0.102,0.563,0.305,0.75c0.203,0.182,0.477,0.273,0.82,0.273c0.615,0,1.096-0.172,1.445-0.516   c0.354-0.349,0.531-0.823,0.531-1.422V91.422 M27.039,84.094h2.211v4.07c0.281-0.443,0.633-0.776,1.055-1   c0.427-0.229,0.912-0.344,1.453-0.344c1.026,0,1.865,0.424,2.516,1.273c0.651,0.844,0.977,1.943,0.977,3.297   c0,1.344-0.326,2.43-0.977,3.258s-1.5,1.242-2.547,1.242c-0.547,0-1.023-0.115-1.43-0.344c-0.401-0.229-0.766-0.594-1.094-1.094   v1.148h-2.164V84.094 M32.992,91.297c0-0.781-0.164-1.393-0.492-1.836c-0.328-0.448-0.779-0.672-1.352-0.672   c-0.604,0-1.073,0.219-1.406,0.656c-0.328,0.432-0.492,1.049-0.492,1.852c0,0.865,0.156,1.521,0.469,1.969   c0.318,0.448,0.779,0.672,1.383,0.672c0.615,0,1.083-0.224,1.406-0.672C32.831,92.813,32.992,92.156,32.992,91.297"/>
<path id="path5439" fill="none" stroke="#000000" stroke-width="3" d="M896.25,29.736h-42.974"/>
<path id="path5441" d="M858.75,37.236v-15l-15,7.5L858.75,37.236z"/>
<g id="g5459" transform="translate(0, 7.5)">
<path id="path5453" fill="none" stroke="#000000" stroke-width="3" d="M82.5,75H54.02"/>
<path id="path5455" d="M60,82.5v-15L45,75L60,82.5z"/>
<path id="path5457" fill="none" stroke="#000000" stroke-width="3" d="M45,67.5c0,15,0,15,0,15"/>
</g>
<g id="g5464" transform="matrix(-1, 9.58164e-17, -9.58164e-17, -1, 127.5, 172.5)">
<path id="path5466" fill="none" stroke="#000000" stroke-width="3" d="M82.5,75H54.02"/>
<path id="path5468" d="M60,82.5v-15L45,75L60,82.5z"/>
<path id="path5470" fill="none" stroke="#000000" stroke-width="3" d="M45,67.5c0,15,0,15,0,15"/>
</g>
<g id="g5770" transform="translate(0, 3.75)">
<g enable-background="new    " id="g4227">
<path d="M23.02,135.352c-0.089,1.308-0.593,2.347-1.512,3.117c-0.919,0.771-2.119,1.156-3.598,1.156     c-1.703,0-3.027-0.531-3.973-1.594s-1.418-2.552-1.418-4.469c0-1.958,0.481-3.458,1.445-4.5c0.963-1.042,2.349-1.563,4.156-1.563     c1.469,0,2.629,0.358,3.48,1.074s1.319,1.728,1.402,3.035h-2.336c-0.099-0.651-0.365-1.147-0.797-1.488     c-0.433-0.341-1.016-0.512-1.75-0.512c-1.042,0-1.833,0.336-2.375,1.008c-0.542,0.672-0.813,1.653-0.813,2.945     c0,1.25,0.27,2.216,0.809,2.898s1.306,1.023,2.301,1.023c0.719,0,1.307-0.184,1.766-0.551c0.458-0.367,0.755-0.895,0.891-1.582     H23.02z" id="path4229"/>
<path d="M29.582,138.25c-0.287,0.442-0.662,0.78-1.125,1.012c-0.464,0.231-1.003,0.348-1.617,0.348     c-0.823,0-1.457-0.234-1.902-0.703s-0.668-1.136-0.668-2c0-0.802,0.223-1.414,0.668-1.836s1.181-0.711,2.207-0.867     c0.234-0.036,0.542-0.078,0.922-0.125c0.963-0.125,1.445-0.403,1.445-0.836c0-0.344-0.107-0.59-0.32-0.738     c-0.214-0.148-0.57-0.223-1.07-0.223c-0.458,0-0.81,0.091-1.055,0.273c-0.245,0.183-0.367,0.442-0.367,0.781v0.125h-2.125v-0.156     c0-0.87,0.307-1.554,0.922-2.051c0.614-0.497,1.463-0.746,2.547-0.746c1.188,0,2.098,0.206,2.73,0.617s0.949,1.005,0.949,1.781     v4.828c0,0.354,0.036,0.618,0.109,0.793c0.073,0.175,0.195,0.306,0.367,0.395v0.383h-2.367c-0.078-0.146-0.138-0.308-0.18-0.484     C29.61,138.644,29.587,138.453,29.582,138.25z M29.543,135.125c-0.37,0.172-0.796,0.31-1.277,0.414     c-0.482,0.104-0.73,0.159-0.746,0.164c-0.401,0.114-0.681,0.258-0.84,0.43c-0.159,0.172-0.238,0.409-0.238,0.711     c0,0.313,0.102,0.562,0.305,0.746s0.477,0.277,0.82,0.277c0.614,0,1.098-0.173,1.449-0.52s0.527-0.819,0.527-1.418V135.125z" id="path4231"/>
<path d="M33.754,142.711v-11.898h2.164v1.148c0.328-0.5,0.694-0.864,1.098-1.094c0.403-0.229,0.879-0.344,1.426-0.344     c1.047,0,1.896,0.413,2.547,1.238c0.651,0.825,0.977,1.91,0.977,3.254c0,1.359-0.326,2.462-0.977,3.309     c-0.651,0.847-1.49,1.27-2.516,1.27c-0.542,0-1.025-0.114-1.449-0.344c-0.425-0.229-0.777-0.563-1.059-1v4.461H33.754z      M39.707,135.109c0-0.854-0.162-1.507-0.484-1.957c-0.323-0.45-0.792-0.676-1.406-0.676c-0.604,0-1.064,0.224-1.379,0.672     c-0.315,0.448-0.473,1.102-0.473,1.961c0,0.802,0.165,1.422,0.496,1.859c0.331,0.438,0.798,0.656,1.402,0.656     c0.573,0,1.023-0.224,1.352-0.672S39.707,135.891,39.707,135.109z" id="path4233"/>
<path d="M43.035,136.539h2.266c0.021,0.433,0.177,0.754,0.469,0.965c0.292,0.211,0.729,0.316,1.313,0.316     c0.442,0,0.785-0.074,1.027-0.223s0.363-0.358,0.363-0.629c0-0.386-0.453-0.675-1.359-0.867c-0.37-0.078-0.664-0.146-0.883-0.203     c-1.104-0.281-1.871-0.614-2.301-1s-0.645-0.906-0.645-1.563c0-0.87,0.313-1.559,0.941-2.066     c0.627-0.508,1.478-0.762,2.551-0.762c1.135,0,2.027,0.253,2.676,0.758s0.993,1.216,1.035,2.133h-2.211     c-0.016-0.359-0.152-0.638-0.41-0.836s-0.616-0.297-1.074-0.297c-0.433,0-0.754,0.065-0.965,0.195s-0.316,0.325-0.316,0.586     c0,0.339,0.565,0.638,1.695,0.898c0.26,0.058,0.466,0.104,0.617,0.141c1.13,0.266,1.902,0.586,2.316,0.961     s0.621,0.903,0.621,1.586c0,0.964-0.34,1.698-1.02,2.203s-1.668,0.758-2.965,0.758c-1.172,0-2.089-0.263-2.75-0.789     c-0.662-0.526-0.992-1.25-0.992-2.172V136.539z" id="path4235"/>
<path d="M56.988,139.305v-11.508h2.367v9.383h5.617v2.125H56.988z" id="path4237"/>
<path d="M65.645,135.047c0-1.411,0.383-2.521,1.148-3.328s1.817-1.211,3.156-1.211c1.333,0,2.384,0.403,3.152,1.211     c0.768,0.808,1.152,1.917,1.152,3.328c0,1.417-0.384,2.528-1.152,3.336c-0.769,0.808-1.819,1.211-3.152,1.211     c-1.339,0-2.391-0.403-3.156-1.211S65.645,136.464,65.645,135.047z M67.949,135.047c0,0.844,0.173,1.495,0.52,1.953     c0.346,0.458,0.84,0.688,1.48,0.688c0.63,0,1.118-0.229,1.465-0.688c0.346-0.458,0.52-1.109,0.52-1.953     c0-0.839-0.172-1.485-0.516-1.941s-0.833-0.684-1.469-0.684c-0.641,0-1.134,0.228-1.48,0.684     C68.122,133.562,67.949,134.208,67.949,135.047z" id="path4239"/>
<path d="M80.934,136.102h2.242c-0.094,1.078-0.487,1.93-1.18,2.555c-0.693,0.625-1.583,0.938-2.672,0.938     c-1.234,0-2.202-0.402-2.902-1.207c-0.701-0.805-1.051-1.918-1.051-3.34c0-1.417,0.358-2.527,1.074-3.332     c0.716-0.805,1.702-1.207,2.957-1.207c1.099,0,1.98,0.292,2.645,0.875s1.035,1.396,1.113,2.438h-2.258     c-0.063-0.453-0.222-0.8-0.477-1.039c-0.255-0.239-0.591-0.359-1.008-0.359c-0.563,0-0.983,0.222-1.262,0.664     c-0.279,0.442-0.418,1.106-0.418,1.992c0,0.817,0.145,1.446,0.434,1.887s0.704,0.66,1.246,0.66c0.422,0,0.76-0.128,1.016-0.383     C80.688,136.987,80.855,136.606,80.934,136.102z" id="path4241"/>
<path d="M84.66,139.305v-11.508h2.211v6.039l2.703-3.023h2.734l-2.961,3.148l3.141,5.344h-2.727l-2.031-3.617l-0.859,0.93v2.688     H84.66z" id="path4243"/>
</g>
<path id="path5584" d="M26.25,142.5L15,157.5h7.5v7.5H30v-7.5h7.5L26.25,142.5z M25.219,146.719h2.031l3.125,8.625H28.5    l-0.594-1.781h-3.344L24,155.344h-1.875L25.219,146.719z M26.25,148.438l-1.219,3.656h2.406L26.25,148.438z"/>
</g>
<g id="g10181" transform="translate(73.5, -60)">
<g enable-background="new    " id="g4247">
<path d="M758.867,171.619v-11.508h8.359v2h-6.023v2.453h5.507v1.969h-5.507v2.961h6.305v2.125H758.867z" id="path4249"/>
<path d="M769.117,171.619v-8.492h2.227v1.008c0.317-0.411,0.692-0.72,1.125-0.926c0.432-0.206,0.914-0.309,1.445-0.309     c0.938,0,1.639,0.243,2.105,0.73c0.466,0.487,0.699,1.22,0.699,2.199v5.789h-2.273v-5.133c0-0.609-0.104-1.044-0.309-1.305     c-0.206-0.261-0.541-0.391-1.004-0.391c-0.537,0-0.961,0.16-1.273,0.48s-0.469,0.757-0.469,1.309v5.039H769.117z" id="path4251"/>
<path d="M782.445,171.681c-0.209,0.005-0.457,0.015-0.746,0.027s-0.473,0.02-0.551,0.02c-0.87,0-1.465-0.163-1.785-0.488     s-0.48-0.968-0.48-1.926v-4.594h-1.125v-1.594h1.125v-2.32h2.25v2.32h1.313v1.594h-1.313v4.703c0,0.224,0.049,0.371,0.148,0.441     c0.099,0.07,0.302,0.105,0.609,0.105h0.555V171.681z" id="path4253"/>
<path d="M788.992,169.041h2.266c-0.229,0.896-0.691,1.598-1.387,2.105s-1.543,0.762-2.543,0.762     c-1.229,0-2.203-0.413-2.922-1.238s-1.078-1.944-1.078-3.355c0-1.391,0.354-2.487,1.063-3.289     c0.708-0.802,1.677-1.203,2.906-1.203c1.302,0,2.307,0.395,3.016,1.184c0.708,0.789,1.063,1.913,1.063,3.371     c0,0.161-0.002,0.282-0.004,0.363c-0.003,0.081-0.01,0.157-0.02,0.23h-5.672c0.031,0.667,0.193,1.169,0.488,1.508     c0.294,0.339,0.717,0.508,1.27,0.508c0.391,0,0.711-0.077,0.961-0.23S788.846,169.364,788.992,169.041z M785.68,166.478h3.344     c-0.021-0.573-0.174-1.009-0.457-1.309c-0.284-0.3-0.691-0.449-1.223-0.449c-0.495,0-0.885,0.151-1.168,0.453     C785.892,165.475,785.727,165.911,785.68,166.478z" id="path4255"/>
<path d="M792.875,171.619v-8.492h2.109v1.453c0.297-0.583,0.643-1.012,1.039-1.285c0.396-0.273,0.867-0.41,1.414-0.41     c0.088,0,0.157,0.001,0.207,0.004c0.049,0.003,0.09,0.007,0.121,0.012l0.008,2.305h-0.758c-0.62,0-1.086,0.161-1.398,0.484     s-0.469,0.802-0.469,1.438v4.492H792.875z" id="path4257"/>
</g>
<path id="path5745" d="M773.852,203.509v-15l-15,7.5L773.852,203.509z"/>
<path id="path5747" fill="none" stroke="#000000" stroke-width="3" d="M796.352,181.009v15h-30"/>
</g>
<g id="g5790">
<g enable-background="new    " id="g4262">
<path d="M58.004,214.346h2.336c0.088,0.63,0.346,1.098,0.773,1.402c0.427,0.305,1.044,0.457,1.852,0.457     c0.688,0,1.206-0.122,1.555-0.367c0.349-0.245,0.523-0.606,0.523-1.086c0-0.698-1.003-1.276-3.008-1.734     c-0.026-0.005-0.05-0.011-0.07-0.016c-0.052-0.011-0.133-0.028-0.242-0.055c-1.073-0.234-1.839-0.497-2.297-0.789     c-0.406-0.261-0.716-0.61-0.93-1.051c-0.214-0.44-0.32-0.96-0.32-1.559c0-1.12,0.38-1.978,1.141-2.574     c0.76-0.597,1.859-0.895,3.297-0.895c1.344,0,2.395,0.317,3.152,0.953s1.157,1.531,1.199,2.688h-2.273     c-0.042-0.558-0.255-0.981-0.641-1.273c-0.386-0.292-0.935-0.438-1.648-0.438c-0.62,0-1.098,0.121-1.434,0.363     s-0.504,0.587-0.504,1.035c0,0.609,0.653,1.065,1.961,1.367c0.354,0.083,0.63,0.148,0.828,0.195     c0.838,0.214,1.434,0.38,1.785,0.5s0.657,0.253,0.918,0.398c0.469,0.261,0.82,0.605,1.055,1.035s0.352,0.944,0.352,1.543     c0,1.198-0.404,2.126-1.211,2.785c-0.808,0.659-1.945,0.988-3.414,0.988c-1.448,0-2.583-0.336-3.406-1.008     C58.509,216.541,58.066,215.585,58.004,214.346z" id="path4264"/>
<path d="M69.059,217.9v-11.508h2.258v3.953c0.307-0.386,0.673-0.676,1.098-0.871c0.424-0.195,0.899-0.293,1.426-0.293     c0.5,0,0.952,0.086,1.355,0.258c0.403,0.172,0.73,0.417,0.98,0.734c0.172,0.214,0.293,0.458,0.363,0.734s0.105,0.719,0.105,1.328     v0.156v5.508h-2.258v-4.445c0-1.052-0.097-1.712-0.289-1.98c-0.193-0.269-0.539-0.402-1.039-0.402     c-0.537,0-0.961,0.16-1.273,0.48s-0.469,0.757-0.469,1.309v5.039H69.059z" id="path4266"/>
<path d="M78.691,208.463v-2.07h2.273v2.07H78.691z M78.691,217.9v-8.492h2.273v8.492H78.691z" id="path4268"/>
<path d="M83.395,217.9v-6.898h-1.211v-1.594h1.211v-0.789c0-0.792,0.204-1.374,0.613-1.746c0.409-0.372,1.053-0.559,1.934-0.559     c0.161,0,0.332,0.004,0.512,0.012s0.371,0.022,0.574,0.043v1.805h-0.594c-0.339,0-0.562,0.044-0.668,0.133     c-0.107,0.089-0.16,0.258-0.16,0.508v0.594h1.422v1.594h-1.406v6.898H83.395z" id="path4270"/>
<path d="M91.957,217.963c-0.208,0.005-0.457,0.015-0.746,0.027s-0.473,0.02-0.551,0.02c-0.87,0-1.465-0.163-1.785-0.488     s-0.48-0.968-0.48-1.926v-4.594H87.27v-1.594h1.125v-2.32h2.25v2.32h1.313v1.594h-1.313v4.703c0,0.224,0.049,0.371,0.148,0.441     c0.099,0.07,0.302,0.105,0.609,0.105h0.555V217.963z" id="path4272"/>
</g>
<path id="path5757" fill="none" stroke="#000000" stroke-width="2" d="M39.875,196.417l-11.25,15h7.5v7.5h7.5v-7.5h7.5    L39.875,196.417z"/>
</g>
<g id="g5795" transform="translate(727.5)">
<g enable-background="new    " id="g4276">
<path d="M85.323,214.346h2.336c0.089,0.63,0.347,1.098,0.773,1.402s1.044,0.457,1.852,0.457c0.688,0,1.206-0.122,1.555-0.367     s0.523-0.606,0.523-1.086c0-0.698-1.003-1.276-3.008-1.734c-0.026-0.005-0.05-0.011-0.07-0.016     c-0.052-0.011-0.133-0.028-0.242-0.055c-1.073-0.234-1.839-0.497-2.297-0.789c-0.406-0.261-0.716-0.61-0.93-1.051     s-0.32-0.96-0.32-1.559c0-1.12,0.38-1.978,1.141-2.574s1.859-0.895,3.297-0.895c1.344,0,2.395,0.317,3.152,0.953     s1.157,1.531,1.199,2.688h-2.273c-0.042-0.558-0.255-0.981-0.641-1.273s-0.935-0.438-1.648-0.438     c-0.62,0-1.098,0.121-1.434,0.363s-0.504,0.587-0.504,1.035c0,0.609,0.653,1.065,1.961,1.367c0.354,0.083,0.63,0.148,0.828,0.195     c0.839,0.214,1.434,0.38,1.785,0.5s0.657,0.253,0.918,0.398c0.469,0.261,0.82,0.605,1.055,1.035s0.352,0.944,0.352,1.543     c0,1.198-0.403,2.126-1.211,2.785s-1.945,0.988-3.414,0.988c-1.448,0-2.583-0.336-3.406-1.008S85.386,215.585,85.323,214.346z" id="path4278"/>
<path d="M96.378,217.9v-11.508h2.258v3.953c0.308-0.386,0.673-0.676,1.098-0.871s0.899-0.293,1.426-0.293     c0.5,0,0.952,0.086,1.355,0.258s0.73,0.417,0.98,0.734c0.172,0.214,0.293,0.458,0.363,0.734s0.105,0.719,0.105,1.328v0.156v5.508     h-2.258v-4.445c0-1.052-0.097-1.712-0.289-1.98s-0.539-0.402-1.039-0.402c-0.536,0-0.961,0.16-1.273,0.48     s-0.469,0.757-0.469,1.309v5.039H96.378z" id="path4280"/>
<path d="M106.011,208.463v-2.07h2.273v2.07H106.011z M106.011,217.9v-8.492h2.273v8.492H106.011z" id="path4282"/>
<path d="M110.714,217.9v-6.898h-1.211v-1.594h1.211v-0.789c0-0.792,0.204-1.374,0.613-1.746s1.054-0.559,1.934-0.559     c0.161,0,0.332,0.004,0.512,0.012s0.371,0.022,0.574,0.043v1.805h-0.594c-0.339,0-0.562,0.044-0.668,0.133     s-0.16,0.258-0.16,0.508v0.594h1.422v1.594h-1.406v6.898H110.714z" id="path4284"/>
<path d="M119.276,217.963c-0.208,0.005-0.457,0.015-0.746,0.027s-0.473,0.02-0.551,0.02c-0.87,0-1.465-0.163-1.785-0.488     s-0.48-0.968-0.48-1.926v-4.594h-1.125v-1.594h1.125v-2.32h2.25v2.32h1.313v1.594h-1.313v4.703c0,0.224,0.05,0.371,0.148,0.441     s0.302,0.105,0.609,0.105h0.555V217.963z" id="path4286"/>
</g>
<path id="path5801" fill="none" stroke="#000000" stroke-width="2" d="M67.183,196.436l-11.25,15h7.5v7.5h7.5v-7.5h7.5    L67.183,196.436z"/>
</g>
<path id="text5803" d="M688.219,207.686v-1.371c0.656-0.188,1.141-0.477,1.453-0.867s0.469-0.898,0.469-1.523v-0.293h-1.922v-3.527   h3.551v3.387c0,1.164-0.301,2.102-0.902,2.813C690.273,207.014,689.391,207.475,688.219,207.686"/>
<path id="text5813" d="M688.219,233.631v-3.527h3.527v3.527H688.219"/>
<path id="path2444" d="M433.447,18.614c0-0.086-0.004-0.199-0.012-0.34c-0.008-0.148-0.012-0.258-0.012-0.328   c0-0.688,0.074-1.258,0.223-1.711c0.148-0.461,0.387-0.891,0.715-1.289c0.25-0.297,0.621-0.637,1.113-1.02   c0.5-0.383,0.824-0.66,0.973-0.832c0.313-0.352,0.527-0.668,0.645-0.949s0.176-0.59,0.176-0.926c0-0.742-0.207-1.32-0.621-1.734   s-0.992-0.621-1.734-0.621s-1.328,0.25-1.758,0.75c-0.422,0.492-0.652,1.188-0.691,2.086h-3.305v-0.363   c0-1.648,0.52-2.961,1.559-3.938c1.047-0.984,2.453-1.477,4.219-1.477c1.805,0,3.238,0.465,4.301,1.395   c1.07,0.922,1.605,2.16,1.605,3.715c0,0.547-0.063,1.039-0.188,1.477c-0.117,0.43-0.301,0.824-0.551,1.184   c-0.32,0.453-0.816,0.945-1.488,1.477c-0.664,0.523-1.066,0.848-1.207,0.973c-0.297,0.289-0.512,0.594-0.645,0.914   c-0.125,0.32-0.188,0.703-0.188,1.148c0,0.039,0.004,0.105,0.012,0.199s0.012,0.164,0.012,0.211H433.447 M433.283,23.63v-3.434   h3.457v3.434H433.283"/>
<path id="text5827" d="M18,271.789c-0.088,1.307-0.594,2.346-1.516,3.117c-0.917,0.771-2.115,1.156-3.594,1.156   c-1.703,0-3.029-0.531-3.977-1.594C7.971,273.406,7.5,271.916,7.5,270c0-1.959,0.482-3.459,1.445-4.5s2.349-1.563,4.156-1.563   c1.469,0,2.627,0.359,3.477,1.078c0.854,0.713,1.323,1.725,1.406,3.031h-2.336c-0.099-0.65-0.365-1.146-0.797-1.484   c-0.432-0.344-1.016-0.516-1.75-0.516c-1.042,0-1.833,0.336-2.375,1.008S9.914,268.709,9.914,270c0,1.25,0.268,2.217,0.805,2.898   c0.542,0.682,1.31,1.023,2.305,1.023c0.719,0,1.307-0.182,1.766-0.547c0.458-0.369,0.755-0.898,0.891-1.586H18 M23.469,275.805   c-0.208,0.006-0.458,0.014-0.75,0.023c-0.287,0.016-0.469,0.023-0.547,0.023c-0.87,0-1.466-0.162-1.789-0.484   c-0.318-0.328-0.477-0.971-0.477-1.93v-4.594h-1.125v-1.594h1.125v-2.32h2.25v2.32h1.313v1.594h-1.313v4.703   c0,0.225,0.049,0.373,0.148,0.445c0.099,0.068,0.302,0.102,0.609,0.102h0.555V275.805 M24.789,275.742v-8.492h2.109v1.453   c0.297-0.584,0.643-1.01,1.039-1.281c0.396-0.275,0.867-0.414,1.414-0.414c0.088,0,0.156,0.002,0.203,0.008   c0.052,0,0.094,0.002,0.125,0.008l0.008,2.305H28.93c-0.62,0-1.086,0.162-1.398,0.484s-0.469,0.803-0.469,1.438v4.492H24.789    M31.023,275.742v-11.508h2.273v11.508H31.023"/>
<path id="text5831" d="M162.969,266.496l-1.594,4.898h3.195L162.969,266.496 M161.594,264.191h2.734l4.148,11.508h-2.484   l-0.781-2.367h-4.461l-0.758,2.367H157.5L161.594,264.191 M169.539,275.699v-11.508h2.273v11.508H169.539 M177.641,275.762   c-0.208,0.006-0.458,0.014-0.75,0.023c-0.287,0.016-0.469,0.023-0.547,0.023c-0.87,0-1.466-0.162-1.789-0.484   c-0.318-0.328-0.477-0.971-0.477-1.93v-4.594h-1.125v-1.594h1.125v-2.32h2.25v2.32h1.313v1.594h-1.313v4.703   c0,0.225,0.049,0.373,0.148,0.445c0.099,0.068,0.302,0.102,0.609,0.102h0.555V275.762"/>
<path id="text5839" d="M828,271.789c-0.089,1.307-0.594,2.346-1.516,3.117c-0.917,0.771-2.114,1.156-3.594,1.156   c-1.703,0-3.028-0.531-3.977-1.594c-0.942-1.063-1.414-2.553-1.414-4.469c0-1.959,0.481-3.459,1.445-4.5s2.349-1.563,4.156-1.563   c1.469,0,2.628,0.359,3.477,1.078c0.854,0.713,1.323,1.725,1.406,3.031h-2.336c-0.099-0.65-0.364-1.146-0.797-1.484   c-0.433-0.344-1.016-0.516-1.75-0.516c-1.042,0-1.833,0.336-2.375,1.008s-0.813,1.654-0.813,2.945c0,1.25,0.269,2.217,0.805,2.898   c0.542,0.682,1.31,1.023,2.305,1.023c0.719,0,1.308-0.182,1.766-0.547c0.458-0.369,0.755-0.898,0.891-1.586H828 M833.469,275.805   c-0.208,0.006-0.458,0.014-0.75,0.023c-0.286,0.016-0.469,0.023-0.547,0.023c-0.87,0-1.466-0.162-1.789-0.484   c-0.317-0.328-0.477-0.971-0.477-1.93v-4.594h-1.125v-1.594h1.125v-2.32h2.25v2.32h1.313v1.594h-1.313v4.703   c0,0.225,0.05,0.373,0.148,0.445c0.099,0.068,0.302,0.102,0.609,0.102h0.555V275.805 M834.789,275.742v-8.492h2.109v1.453   c0.297-0.584,0.644-1.01,1.039-1.281c0.396-0.275,0.867-0.414,1.414-0.414c0.089,0,0.156,0.002,0.203,0.008   c0.052,0,0.094,0.002,0.125,0.008l0.008,2.305h-0.758c-0.62,0-1.086,0.162-1.398,0.484s-0.469,0.803-0.469,1.438v4.492H834.789    M841.023,275.742v-11.508h2.273v11.508H841.023"/>
<path id="text5872" d="M108.945,264.02l-3.297-11.508h2.453l1.969,8.117l1.664-8.117h2.523l1.664,8.117l1.969-8.117h2.43   l-3.289,11.508h-2.258l-1.781-8.813l-1.789,8.813H108.945 M121.5,254.582v-2.07h2.273v2.07H121.5 M121.5,264.02v-8.492h2.273v8.492   H121.5 M125.797,264.02v-8.492h2.227v1.008c0.318-0.412,0.693-0.719,1.125-0.922c0.432-0.209,0.914-0.313,1.445-0.313   c0.938,0,1.638,0.244,2.102,0.734c0.469,0.484,0.703,1.217,0.703,2.195v5.789h-2.273v-5.133c0-0.609-0.104-1.045-0.313-1.305   c-0.203-0.26-0.537-0.391-1-0.391c-0.537,0-0.961,0.162-1.273,0.484c-0.313,0.318-0.469,0.752-0.469,1.305v5.039H125.797    M106.648,284.02v-11.508h2.367v4.727l4.492-4.727h2.961l-4.594,4.656l5.008,6.852h-2.891l-3.75-5.266l-1.227,1.219v4.047H106.648    M122.938,281.441h2.266c-0.229,0.896-0.693,1.6-1.391,2.109c-0.693,0.506-1.539,0.758-2.539,0.758   c-1.229,0-2.203-0.412-2.922-1.234c-0.719-0.828-1.078-1.947-1.078-3.359c0-1.391,0.354-2.486,1.063-3.289s1.677-1.203,2.906-1.203   c1.302,0,2.307,0.396,3.016,1.188c0.708,0.787,1.063,1.908,1.063,3.367c0,0.162-0.002,0.283-0.008,0.367   c0,0.078-0.005,0.154-0.016,0.227h-5.672c0.031,0.666,0.193,1.17,0.484,1.508c0.297,0.338,0.721,0.508,1.273,0.508   c0.391,0,0.711-0.076,0.961-0.227C122.594,282.004,122.792,281.764,122.938,281.441 M119.625,278.879h3.344   c-0.021-0.572-0.174-1.008-0.461-1.305c-0.281-0.303-0.688-0.453-1.219-0.453c-0.495,0-0.885,0.15-1.172,0.453   C119.836,277.877,119.672,278.311,119.625,278.879 M127.164,287.426v-1.836c0.073,0.01,0.148,0.018,0.227,0.023   s0.18,0.008,0.305,0.008c0.448,0,0.784-0.107,1.008-0.32c0.224-0.209,0.336-0.523,0.336-0.945c0-0.031-0.005-0.07-0.016-0.117   s-0.021-0.086-0.031-0.117l-3.063-8.594h2.5l1.789,6.125l1.742-6.125h2.391l-3.492,10.016c-0.26,0.75-0.586,1.26-0.977,1.531   c-0.391,0.275-0.977,0.414-1.758,0.414c-0.141,0-0.292-0.006-0.453-0.016S127.341,287.447,127.164,287.426"/>
<path id="text5878" d="M708.945,264.02l-3.297-11.508h2.453l1.969,8.117l1.664-8.117h2.523l1.664,8.117l1.969-8.117h2.43   l-3.289,11.508h-2.258l-1.781-8.813l-1.789,8.813H708.945 M721.5,254.582v-2.07h2.273v2.07H721.5 M721.5,264.02v-8.492h2.273v8.492   H721.5 M725.797,264.02v-8.492h2.227v1.008c0.317-0.412,0.692-0.719,1.125-0.922c0.433-0.209,0.914-0.313,1.445-0.313   c0.938,0,1.638,0.244,2.102,0.734c0.469,0.484,0.703,1.217,0.703,2.195v5.789h-2.273v-5.133c0-0.609-0.104-1.045-0.313-1.305   c-0.203-0.26-0.536-0.391-1-0.391c-0.536,0-0.961,0.162-1.273,0.484c-0.313,0.318-0.469,0.752-0.469,1.305v5.039H725.797    M706.648,284.02v-11.508h2.367v4.727l4.492-4.727h2.961l-4.594,4.656l5.008,6.852h-2.891l-3.75-5.266l-1.227,1.219v4.047H706.648    M722.938,281.441h2.266c-0.229,0.896-0.692,1.6-1.391,2.109c-0.692,0.506-1.539,0.758-2.539,0.758   c-1.229,0-2.203-0.412-2.922-1.234c-0.719-0.828-1.078-1.947-1.078-3.359c0-1.391,0.354-2.486,1.063-3.289s1.677-1.203,2.906-1.203   c1.302,0,2.308,0.396,3.016,1.188c0.708,0.787,1.063,1.908,1.063,3.367c0,0.162-0.003,0.283-0.008,0.367   c0,0.078-0.005,0.154-0.016,0.227h-5.672c0.031,0.666,0.192,1.17,0.484,1.508c0.297,0.338,0.722,0.508,1.273,0.508   c0.391,0,0.711-0.076,0.961-0.227C722.594,282.004,722.792,281.764,722.938,281.441 M719.625,278.879h3.344   c-0.021-0.572-0.175-1.008-0.461-1.305c-0.281-0.303-0.688-0.453-1.219-0.453c-0.495,0-0.886,0.15-1.172,0.453   C719.836,277.877,719.672,278.311,719.625,278.879 M727.164,287.426v-1.836c0.073,0.01,0.148,0.018,0.227,0.023   s0.18,0.008,0.305,0.008c0.448,0,0.784-0.107,1.008-0.32c0.224-0.209,0.336-0.523,0.336-0.945c0-0.031-0.005-0.07-0.016-0.117   s-0.021-0.086-0.031-0.117l-3.063-8.594h2.5l1.789,6.125l1.742-6.125h2.391l-3.492,10.016c-0.261,0.75-0.586,1.26-0.977,1.531   c-0.391,0.275-0.977,0.414-1.758,0.414c-0.141,0-0.292-0.006-0.453-0.016S727.341,287.447,727.164,287.426"/>
<path id="text5884" d="M759.984,275.609v-11.508h3.5l2.289,8.758l2.258-8.758h3.516v11.508h-2.219v-9.281l-2.336,9.281h-2.422   l-2.367-9.281v9.281H759.984 M778.992,273.031h2.266c-0.229,0.896-0.692,1.6-1.391,2.109c-0.692,0.506-1.539,0.758-2.539,0.758   c-1.229,0-2.203-0.412-2.922-1.234c-0.719-0.828-1.078-1.947-1.078-3.359c0-1.391,0.354-2.486,1.063-3.289s1.677-1.203,2.906-1.203   c1.302,0,2.308,0.396,3.016,1.188c0.708,0.787,1.063,1.908,1.063,3.367c0,0.162-0.003,0.283-0.008,0.367   c0,0.078-0.005,0.154-0.016,0.227h-5.672c0.031,0.666,0.192,1.17,0.484,1.508c0.297,0.338,0.722,0.508,1.273,0.508   c0.391,0,0.711-0.076,0.961-0.227C778.648,273.594,778.847,273.354,778.992,273.031 M775.68,270.469h3.344   c-0.021-0.572-0.175-1.008-0.461-1.305c-0.281-0.303-0.688-0.453-1.219-0.453c-0.495,0-0.886,0.15-1.172,0.453   C775.891,269.467,775.727,269.9,775.68,270.469 M782.883,275.609v-8.492h2.227v1.008c0.317-0.412,0.692-0.719,1.125-0.922   c0.433-0.209,0.914-0.313,1.445-0.313c0.938,0,1.638,0.244,2.102,0.734c0.469,0.484,0.703,1.217,0.703,2.195v5.789h-2.273v-5.133   c0-0.609-0.104-1.045-0.313-1.305c-0.203-0.26-0.536-0.391-1-0.391c-0.536,0-0.961,0.162-1.273,0.484   c-0.313,0.318-0.469,0.752-0.469,1.305v5.039H782.883 M800.016,267.117v8.492h-2.227v-1.008c-0.323,0.412-0.7,0.721-1.133,0.93   c-0.427,0.203-0.909,0.305-1.445,0.305c-0.933,0-1.633-0.244-2.102-0.734c-0.464-0.49-0.695-1.221-0.695-2.195v-5.789h2.273v5.133   c0,0.604,0.102,1.037,0.305,1.297c0.203,0.256,0.539,0.383,1.008,0.383c0.531,0,0.953-0.158,1.266-0.477   c0.317-0.322,0.477-0.76,0.477-1.313v-5.023H800.016"/>
<path id="text6955" d="M372.152,48.299c0,0.961,0.238,1.723,0.715,2.285c0.484,0.563,1.141,0.844,1.969,0.844   c0.773,0,1.379-0.273,1.816-0.82s0.656-1.309,0.656-2.285c0-0.898-0.227-1.598-0.68-2.098s-1.09-0.75-1.91-0.75   c-0.805,0-1.434,0.25-1.887,0.75S372.152,47.416,372.152,48.299 M372.105,43.916c0.383-0.391,0.844-0.684,1.383-0.879   c0.539-0.203,1.141-0.305,1.805-0.305c1.641,0,2.953,0.5,3.938,1.5c0.992,1,1.488,2.332,1.488,3.996   c0,1.766-0.539,3.191-1.617,4.277s-2.5,1.629-4.266,1.629c-2.039,0-3.59-0.703-4.652-2.109c-1.055-1.406-1.582-3.465-1.582-6.176   c0-2.914,0.566-5.141,1.699-6.68c1.133-1.547,2.766-2.32,4.898-2.32c1.484,0,2.68,0.387,3.586,1.16   c0.914,0.773,1.414,1.82,1.5,3.141h-3.398c-0.078-0.539-0.289-0.945-0.633-1.219s-0.824-0.41-1.441-0.41   c-0.844,0-1.492,0.367-1.945,1.102C372.414,41.35,372.16,42.447,372.105,43.916 M0,0"/>
<path id="rect10188" fill="#FFFFFF" stroke="#000000" d="M780,0h60v60h-60V0z"/>
<path id="path2346" d="M14.129,1.479v2.928h-2.64V1.479H14.129 M18.593,1.479v2.928h-2.64V1.479H18.593 M12.233,16.095v4.536h9.48   v3H8.633V6.135h12.648v3h-9.048v3.96h8.376v3H12.233"/>
<path id="path2332" d="M206.733,16.791v1.728h-5.712v-1.728H206.733 M203.829,8.535c0.992,0,1.84,0.36,2.544,1.08   c0.72,0.704,1.08,1.552,1.08,2.544c0,1.024-0.36,1.888-1.08,2.592c-0.704,0.704-1.568,1.056-2.592,1.056   c-0.976,0-1.824-0.36-2.544-1.08c-0.704-0.72-1.056-1.576-1.056-2.568c0-0.992,0.352-1.84,1.056-2.544   C201.957,8.895,202.821,8.535,203.829,8.535 M205.413,10.575c-0.432-0.448-0.96-0.672-1.584-0.672s-1.16,0.224-1.608,0.672   c-0.448,0.448-0.672,0.976-0.672,1.584c0,0.624,0.216,1.16,0.648,1.608c0.448,0.448,0.976,0.672,1.584,0.672   c0.64,0,1.184-0.216,1.632-0.648c0.448-0.448,0.672-0.992,0.672-1.632C206.085,11.535,205.861,11.007,205.413,10.575    M199.485,6.135v17.496h-2.52l-9.048-14.184v14.184h-2.112V6.135h2.424l9.144,14.304V6.135H199.485"/>
<path id="path2324" d="M253.381,19.89h3.6v3.288c0,0.56-0.04,1.04-0.12,1.44c-0.064,0.4-0.216,0.824-0.456,1.272   c-0.224,0.448-0.592,0.816-1.104,1.104c-0.496,0.288-1.136,0.48-1.92,0.576v-1.344c1.376-0.272,2.064-1.192,2.064-2.76v-0.072   h-2.064V19.89 M256.981,10.914v3.504h-3.6v-3.504H256.981"/>
<path id="path2310" d="M376.07,19.476v3.504h-3.601v-3.504H376.07 M376.07,10.5v3.504h-3.601V10.5H376.07"/>
<path id="path2292" d="M108.763,61.38v0.264c0,0.896-0.304,1.648-0.912,2.256s-1.36,0.912-2.256,0.912s-1.648-0.304-2.256-0.912   s-0.912-1.368-0.912-2.28v-0.24h1.344c0.144,1.056,0.76,1.584,1.848,1.584c0.528,0,0.928-0.12,1.2-0.36   c0.288-0.256,0.488-0.664,0.6-1.224H108.763 M102.163,83.628h-3.6V66.132h3.6v11.904l6.936-11.904h3.696v17.496h-3.6V71.532   L102.163,83.628"/>
<path id="path2288" d="M168.755,80.628V66.132h3.6v14.904h2.64v6.192h-3.12v-3.6H158.22V66.132h3.6v14.496H168.755"/>
<path id="path2286" d="M224.686,83.628h-4.176l2.736-5.424l-6.072-12.072h3.912l4.128,8.28l4.128-8.28h4.176L224.686,83.628"/>
<path id="path2284" d="M282.257,83.628h-3.6V66.132h3.6v6.696l6.84-6.696h4.248l-8.784,8.424l9.528,9.072h-4.8l-7.032-6.84V83.628"/>
<path id="path2282" d="M342.153,76.092v4.536h9.48v3h-13.08V66.132h12.648v3h-9.049v3.96h8.376v3H342.153"/>
<path id="path2280" d="M408.326,75.684h-6.937v7.944h-3.6V66.132h3.6v6.552h6.912v-6.552h3.624v17.496h-3.6V75.684"/>
<path id="path2278" d="M462.538,83.628h-3.6V66.132h12.288v3h-8.688V83.628"/>
<path id="path2276" d="M539.818,83.628h-21.575V66.132h3.6v14.496h5.256V66.132h3.601v14.496h5.52V66.132h3.6V83.628"/>
<path id="path2274" d="M599.527,83.628h-21.456V66.132h3.6v14.496h5.496V66.132h3.6v14.496h5.521V66.132h3.6v14.904h2.88v6.192   h-3.239V83.628"/>
<path id="path2272" d="M638.237,71.46c0-0.912,0.152-1.712,0.456-2.4c0.305-0.704,0.688-1.248,1.152-1.632   c0.464-0.4,1.016-0.72,1.656-0.96c0.656-0.256,1.264-0.424,1.824-0.504c0.56-0.08,1.151-0.12,1.775-0.12   c2.096,0,3.72,0.472,4.872,1.416c1.168,0.928,1.752,2.248,1.752,3.96c0,1.488-0.504,2.608-1.512,3.36   c1.424,0.784,2.136,2.096,2.136,3.936c0,1.776-0.632,3.168-1.896,4.176c-1.265,0.992-3.024,1.488-5.28,1.488   c-2.24,0-3.984-0.496-5.232-1.488c-1.231-0.992-1.903-2.424-2.016-4.296h3.504c0.064,0.944,0.432,1.664,1.104,2.16   c0.672,0.496,1.615,0.744,2.831,0.744c1.089,0,1.944-0.208,2.568-0.624c0.641-0.416,0.96-0.992,0.96-1.728   c0-0.784-0.264-1.432-0.792-1.944c-0.527-0.512-1.359-0.768-2.496-0.768h-2.447v-2.88h1.823c2.208,0,3.313-0.824,3.313-2.472   c0-0.656-0.272-1.176-0.816-1.56c-0.544-0.4-1.28-0.6-2.208-0.6c-2.32,0-3.544,0.912-3.672,2.736H638.237"/>
<path id="path2270" d="M707.308,74.7l5.616,8.928h-4.272l-3.36-6.072l-3.336,6.072h-4.176l5.521-8.808l-5.328-8.688h4.271   l3.072,5.76l3.216-5.76h4.176L707.308,74.7"/>
<path id="path2268" d="M765.207,72.372h4.488c1.601,0,2.88,0.528,3.84,1.584s1.44,2.472,1.44,4.248c0,1.76-0.488,3.104-1.464,4.032   c-0.96,0.928-2.353,1.392-4.176,1.392h-7.729V69.132l-5.52-0.024v-2.976h9.119V72.372 M765.207,75.372v5.256h3.36   c0.96,0,1.664-0.216,2.112-0.648c0.464-0.432,0.695-1.096,0.695-1.992c0-1.744-0.936-2.616-2.808-2.616H765.207"/>
<path id="path2264" d="M118.703,143.628v-2.256h-0.816c-4.912,0-7.368-2.24-7.368-6.72c0-0.832,0.096-1.584,0.288-2.256   c0.208-0.672,0.456-1.224,0.744-1.656c0.304-0.432,0.68-0.808,1.128-1.128c0.464-0.32,0.904-0.56,1.32-0.72   c0.416-0.16,0.896-0.288,1.44-0.384c0.56-0.096,1.016-0.152,1.368-0.168c0.368-0.016,0.776-0.024,1.224-0.024h0.672v-2.184h3.6   v2.184h0.672c0.448,0,0.848,0.008,1.2,0.024c0.368,0.016,0.824,0.072,1.368,0.168c0.56,0.096,1.048,0.224,1.464,0.384   c0.416,0.16,0.848,0.4,1.296,0.72c0.464,0.32,0.84,0.696,1.128,1.128c0.304,0.432,0.552,0.984,0.744,1.656   c0.208,0.672,0.312,1.424,0.312,2.256c0,4.48-2.456,6.72-7.368,6.72h-0.816v2.256H118.703 M118.703,139.116v-8.448h-0.384   c-0.416,0-0.784,0.016-1.104,0.048c-0.304,0.032-0.696,0.128-1.176,0.288c-0.464,0.144-0.848,0.352-1.152,0.624   c-0.304,0.256-0.576,0.656-0.816,1.2c-0.224,0.544-0.336,1.184-0.336,1.92c0,0.768,0.096,1.44,0.288,2.016   c0.192,0.56,0.416,0.992,0.672,1.296c0.272,0.288,0.616,0.52,1.032,0.696c0.416,0.16,0.776,0.264,1.08,0.312   c0.32,0.032,0.688,0.048,1.104,0.048H118.703 M122.302,139.116h0.792c0.416,0,0.776-0.016,1.08-0.048   c0.32-0.048,0.688-0.152,1.104-0.312c0.416-0.176,0.752-0.408,1.008-0.696c0.271-0.304,0.504-0.736,0.696-1.296   c0.192-0.576,0.288-1.248,0.288-2.016c0-0.736-0.12-1.376-0.36-1.92c-0.224-0.544-0.488-0.944-0.792-1.2   c-0.304-0.272-0.696-0.48-1.176-0.624c-0.464-0.16-0.856-0.256-1.176-0.288c-0.304-0.032-0.664-0.048-1.08-0.048h-0.384V139.116"/>
<path id="path2258" d="M191.905,126.132v17.496h-3.6v-17.496H191.905 M175.921,132.372h4.488c1.6,0,2.88,0.528,3.84,1.584   s1.44,2.472,1.44,4.248c0,1.76-0.488,3.104-1.464,4.032c-0.96,0.928-2.352,1.392-4.176,1.392h-7.728v-17.496h3.6V132.372    M175.921,135.372v5.256h3.36c0.96,0,1.664-0.216,2.112-0.648c0.464-0.432,0.696-1.096,0.696-1.992   c0-1.744-0.936-2.616-2.808-2.616H175.921"/>
<path id="path2252" d="M246.923,138.588c0,0.576-0.096,1.136-0.288,1.68c-0.192,0.544-0.504,1.08-0.936,1.608   c-0.416,0.528-1.048,0.952-1.896,1.272c-0.848,0.32-1.856,0.48-3.024,0.48h-7.872v-17.496h7.8c1.088,0,2.024,0.16,2.808,0.48   c0.8,0.32,1.392,0.736,1.776,1.248c0.4,0.496,0.688,0.984,0.864,1.464c0.176,0.48,0.264,0.952,0.264,1.416   c0,0.752-0.184,1.4-0.552,1.944c-0.368,0.544-0.984,1.096-1.848,1.656C245.955,135.476,246.923,136.892,246.923,138.588    M236.507,129.132v3.96h3.912c1.696,0,2.544-0.656,2.544-1.968c0-1.328-0.848-1.992-2.544-1.992H236.507 M236.507,136.092v4.536   h4.296c1.776,0,2.664-0.752,2.664-2.256c0-1.52-0.888-2.28-2.664-2.28H236.507"/>
<path id="path2246" d="M303.275,140.1h-6.552l-1.176,3.528h-3.672l6.216-17.496h3.983l6.048,17.496h-3.695L303.275,140.1    M302.291,137.1l-2.279-6.84l-2.28,6.84H302.291"/>
<path id="path2242" d="M364.068,129.132h-6.937v14.496h-3.6v-17.496h14.136v17.496h-3.6V129.132"/>
<path id="path2240" d="M417.551,137.388v6.24h-3.601v-17.496h7.729c1.824,0,3.216,0.464,4.176,1.392   c0.976,0.928,1.464,2.272,1.464,4.032c0,1.776-0.479,3.192-1.439,4.248c-0.96,1.056-2.24,1.584-3.841,1.584H417.551    M417.551,134.388h3.359c1.872,0,2.809-0.872,2.809-2.616c0-0.896-0.232-1.56-0.696-1.992c-0.448-0.432-1.152-0.648-2.112-0.648   h-3.359V134.388"/>
<path id="path2236" d="M474.391,141.612c-1.536-1.712-2.304-3.912-2.304-6.6c0-2.688,0.768-4.888,2.304-6.6   c1.552-1.712,3.584-2.568,6.096-2.568c2.528,0,4.568,0.856,6.12,2.568c1.552,1.696,2.328,3.936,2.328,6.72   c0,2.592-0.768,4.752-2.304,6.48c-1.521,1.712-3.561,2.568-6.12,2.568C477.967,144.18,475.927,143.324,474.391,141.612    M480.511,128.916c-1.456,0-2.624,0.56-3.504,1.68c-0.88,1.104-1.32,2.576-1.32,4.416c0,1.84,0.44,3.32,1.32,4.44   c0.88,1.104,2.048,1.656,3.504,1.656c1.439,0,2.6-0.552,3.479-1.656c0.896-1.104,1.345-2.552,1.345-4.344   c0-1.888-0.44-3.392-1.32-4.512C483.15,129.476,481.982,128.916,480.511,128.916"/>
<path id="path2232" d="M542.68,129.132h-5.328v4.896c0,0.8-0.024,1.544-0.072,2.232c-0.048,0.672-0.144,1.408-0.288,2.208   c-0.128,0.8-0.327,1.504-0.6,2.112s-0.616,1.176-1.032,1.704c-0.399,0.528-0.92,0.936-1.56,1.224   c-0.641,0.272-1.368,0.408-2.185,0.408v-3.48h0.024c0.816,0,1.368-0.576,1.656-1.728c0.304-1.152,0.456-3.088,0.456-5.808v-6.768   h12.527v17.496h-3.6V129.132"/>
<path id="path2230" d="M593.541,141.036c0.64,0,1.16-0.792,1.56-2.376c0.416-1.6,0.624-3.632,0.624-6.096v-6.432h12.48v14.904h2.76   v6.192h-3.12v-3.6h-13.68v3.6h-3.12v-6.192H593.541 M598.196,140.628h6.408v-11.496h-5.28v4.56   C599.324,136.732,598.949,139.044,598.196,140.628"/>
<path id="path2226" d="M661.683,136.788l-6.456,6.84h-4.416l8.568-9.072l-7.512-8.424h3.936l5.88,6.696v-6.696h3.601v6.696   l5.88-6.696h3.936l-7.512,8.424l8.567,9.072h-4.416l-6.455-6.84v6.84h-3.601V136.788"/>
<path id="path2224" d="M712.63,132.06c0.16-1.936,0.912-3.456,2.256-4.56s3.023-1.656,5.04-1.656c2.464,0,4.416,0.824,5.855,2.472   c1.44,1.648,2.16,3.888,2.16,6.72c0,2.816-0.712,5.048-2.136,6.696c-1.424,1.632-3.353,2.448-5.784,2.448   c-2.176,0-3.936-0.584-5.28-1.752c-1.344-1.184-2.071-2.776-2.184-4.776h3.504c0.112,1.12,0.504,1.984,1.176,2.592   c0.672,0.608,1.568,0.912,2.688,0.912c1.248,0,2.248-0.432,3-1.296c0.768-0.88,1.224-2.112,1.368-3.696h-7.009v-3h6.984   c-0.24-1.344-0.752-2.384-1.536-3.12c-0.784-0.752-1.76-1.128-2.928-1.128c-0.704,0-1.304,0.112-1.8,0.336s-0.88,0.536-1.152,0.936   c-0.256,0.4-0.432,0.728-0.528,0.984c-0.096,0.24-0.184,0.536-0.264,0.888H712.63"/>
<path id="path2218" d="M152.02,197.389l-5.304,6.239h-4.296l5.28-6.36c-1.136-0.224-2.088-0.832-2.856-1.824   c-0.752-1.008-1.128-2.303-1.128-3.887c0-1.761,0.48-3.104,1.44-4.033c0.976-0.928,2.376-1.392,4.2-1.392h7.728v17.496h-3.6v-6.239   H152.02 M153.484,194.389v-5.257h-3.36c-0.96,0-1.672,0.216-2.136,0.648c-0.448,0.432-0.672,1.096-0.672,1.991   c0,1.744,0.936,2.617,2.808,2.617H153.484"/>
<path id="path2214" d="M213.127,198.229h-4.512c-1.424,0-2.656-0.424-3.696-1.272c-1.024-0.849-1.536-1.872-1.536-3.072v-7.752h3.6   v7.608c0,0.512,0.192,0.888,0.576,1.128c0.384,0.239,0.832,0.36,1.344,0.36h4.2v-9.097h3.624v17.496h-3.6V198.229"/>
<path id="path2212" d="M274.266,192.061c-0.448-2.097-1.696-3.145-3.744-3.145c-1.424,0-2.536,0.544-3.336,1.632   c-0.8,1.088-1.2,2.601-1.2,4.536c0,1.904,0.384,3.393,1.152,4.464c0.784,1.072,1.872,1.608,3.264,1.608   c1.12,0,2.016-0.305,2.688-0.912c0.672-0.608,1.064-1.473,1.176-2.592h3.504c-0.112,2-0.84,3.592-2.184,4.775   c-1.344,1.168-3.104,1.752-5.28,1.752c-2.432,0-4.36-0.815-5.784-2.447c-1.424-1.648-2.136-3.881-2.136-6.696   c0-2.832,0.72-5.072,2.16-6.72c1.44-1.648,3.392-2.473,5.856-2.473c2.064,0,3.752,0.553,5.064,1.656   c1.328,1.104,2.072,2.624,2.232,4.561H274.266"/>
<path id="path2210" d="M325.482,189.996v13.632h-3.6v-17.496h5.376l3.168,13.92l3.071-13.92h5.425v17.496h-3.601v-13.632   l-3.096,13.632h-3.6L325.482,189.996"/>
<path id="path2208" d="M387.007,203.628h-3.6v-17.496h3.6v11.904l6.937-11.904h3.695v17.496h-3.6v-12.096L387.007,203.628"/>
<path id="path2206" d="M451.991,189.132v14.496h-3.6v-14.496h-5.304v-3h14.016v3H451.991"/>
<path id="path2204" d="M507.473,192.372h4.488c1.6,0,2.88,0.528,3.84,1.584s1.439,2.472,1.439,4.248   c0,1.76-0.488,3.104-1.464,4.032c-0.96,0.928-2.352,1.392-4.176,1.392h-7.729v-17.496h3.601V192.372 M507.473,195.372v5.256h3.359   c0.96,0,1.664-0.216,2.112-0.647c0.464-0.433,0.696-1.097,0.696-1.992c0-1.744-0.937-2.616-2.809-2.616H507.473"/>
<path id="path2200" d="M577.657,198.3c0,0.64-0.096,1.248-0.288,1.824c-0.191,0.576-0.504,1.144-0.936,1.704   c-0.416,0.544-1.048,0.984-1.896,1.32c-0.848,0.319-1.855,0.479-3.023,0.479h-7.872v-17.496h12.288v3h-8.688v3.384h3.912   c1.008,0,1.912,0.152,2.712,0.457c0.8,0.287,1.433,0.647,1.896,1.079c0.464,0.433,0.84,0.929,1.128,1.488   c0.304,0.544,0.504,1.04,0.6,1.487C577.602,197.477,577.657,197.9,577.657,198.3 M567.241,195.516v5.112h4.296   c0.849,0,1.504-0.231,1.969-0.696c0.464-0.479,0.695-1.096,0.695-1.848c0-0.768-0.231-1.384-0.695-1.848   c-0.465-0.48-1.12-0.721-1.969-0.721H567.241"/>
<path id="path2196" d="M636.49,204.18c-1.024,0-1.968-0.152-2.832-0.455c-0.848-0.289-1.552-0.681-2.112-1.177   c-0.56-0.496-1.048-1.024-1.464-1.584c-0.416-0.575-0.744-1.184-0.983-1.823c-0.225-0.641-0.393-1.192-0.505-1.656   c-0.111-0.465-0.184-0.904-0.216-1.32h-3.504v7.464h-3.6v-17.496h3.6v7.032h3.576c0.08-0.448,0.192-0.92,0.336-1.416   s0.416-1.12,0.816-1.872c0.416-0.752,0.896-1.408,1.439-1.968c0.544-0.561,1.288-1.04,2.232-1.44   c0.96-0.416,2.023-0.624,3.191-0.624c2.496,0,4.488,0.881,5.977,2.641c1.487,1.76,2.231,3.976,2.231,6.647   c0,2.544-0.76,4.688-2.279,6.433C640.874,203.309,638.906,204.18,636.49,204.18 M636.49,188.916c-1.44,0-2.568,0.552-3.384,1.656   c-0.8,1.104-1.2,2.584-1.2,4.439c0,1.856,0.4,3.336,1.2,4.44c0.815,1.104,1.943,1.655,3.384,1.655c1.424,0,2.544-0.543,3.36-1.631   c0.815-1.104,1.224-2.561,1.224-4.369c0-1.92-0.4-3.432-1.2-4.535C639.074,189.468,637.946,188.916,636.49,188.916"/>
<path id="path3070" d="M797.127,55.857l-5.813-19.934h1.582l5.836,19.934H797.127"/>
<path id="text5819" d="M791.314,25.857l5.813-19.934h1.605l-5.836,19.934H791.314"/>
<path id="path3295" d="M612.969,266.496l-1.594,4.898h3.195L612.969,266.496 M611.594,264.191h2.734l4.148,11.508h-2.484   l-0.781-2.367h-4.461l-0.758,2.367H607.5L611.594,264.191 M619.539,275.699v-11.508h2.273v11.508H619.539 M627.641,275.762   c-0.208,0.006-0.458,0.014-0.75,0.023c-0.286,0.016-0.469,0.023-0.547,0.023c-0.87,0-1.466-0.162-1.789-0.484   c-0.317-0.328-0.477-0.971-0.477-1.93v-4.594h-1.125v-1.594h1.125v-2.32h2.25v2.32h1.313v1.594h-1.313v4.703   c0,0.225,0.05,0.373,0.148,0.445c0.099,0.068,0.302,0.102,0.609,0.102h0.555V275.762" style="fill:#000000;fill-opacity:1"/>
<g style="font-style:normal;font-weight:normal;font-size:40px;line-height:125%;font-family:sans-serif;letter-spacing:0px;word-spacing:0px;fill:#000000;fill-opacity:1;stroke:none;stroke-width:1px;stroke-linecap:butt;stroke-linejoin:miter;stroke-opacity:1" id="text4348" transform="translate(0.53033009,0.08838835)">
<path d="m 525.32874,16.907438 -1.55396,0 0,1.751099 4.38355,0 0,2.191772 -4.38355,0 0,2.69043 -3.53699,0 0,-2.69043 -1.61194,0 0,-2.191772 1.61194,0 0,-1.751099 -1.61194,0 0,-2.191772 1.61194,0 0,-7.8045656 4.82422,0 q 1.50757,0 2.72522,0.3015137 1.21765,0.289917 2.07581,0.904541 0.86975,0.614624 1.33362,1.5771484 0.47546,0.9625245 0.47546,2.2845455 0,0.962525 -0.26672,1.704712 -0.26673,0.730591 -0.7306,1.287232 -0.46386,0.545044 -1.07849,0.916137 -0.61462,0.371094 -1.32202,0.603028 -0.7074,0.220337 -1.46118,0.324707 -0.75378,0.09277 -1.48437,0.09277 z m -1.55396,-7.7929685 0,5.6011965 1.36841,0 q 1.49597,0 2.23816,-0.765381 0.75378,-0.765381 0.75378,-2.075806 0,-1.275634 -0.75378,-2.017822 -0.74219,-0.7421875 -2.23816,-0.7421875 l -1.36841,0 z" style="font-style:normal;font-variant:normal;font-weight:bold;font-stretch:normal;font-size:23.75px;font-family:'Segoe UI';-inkscape-font-specification:'Segoe UI Bold'" id="path4355" inkscape:connector-curvature="0"/>
</g>
</g>
</svg>
